<?xml version="1.0" standalone="no"?>
<!DOCTYPE svg PUBLIC "-//W3C//DTD SVG 20010904//EN"
 "http://www.w3.org/TR/2001/REC-SVG-20010904/DTD/svg10.dtd">
<svg version="1.0" xmlns="http://www.w3.org/2000/svg"
 width="1024.000000pt" height="1024.000000pt" viewBox="0 0 1024.000000 1024.000000"
 preserveAspectRatio="xMidYMid meet">
<metadata>
Created by potrace 1.16, written by Peter Selinger 2001-2019
</metadata>
<g transform="translate(0.000000,1024.000000) scale(0.100000,-0.100000)"
fill="#000000" stroke="none">
<path d="M0 5120 l0 -5120 5120 0 5120 0 0 2306 c0 1282 -4 2303 -9 2300 -4
-3 -11 -31 -15 -63 -27 -242 -153 -706 -277 -1018 -53 -134 -198 -436 -275
-572 -94 -166 -295 -467 -401 -601 -99 -125 -262 -312 -273 -312 -4 0 -11 28
-15 63 -43 401 -204 738 -417 873 -21 14 -38 31 -38 38 0 8 33 35 73 60 39 25
104 67 142 95 39 27 102 65 140 84 112 56 151 87 315 248 85 83 197 192 247
241 86 84 97 98 158 221 69 140 131 331 161 492 24 132 16 394 -16 485 -36
105 -84 189 -170 298 -74 92 -84 102 -114 102 -43 0 -150 -44 -296 -122 -63
-34 -146 -78 -185 -98 -38 -20 -101 -53 -138 -73 -73 -39 -96 -44 -115 -25
-28 28 -11 48 115 131 284 188 420 381 443 630 12 131 1 216 -41 301 -77 159
-201 223 -409 214 -74 -4 -110 -2 -113 5 -2 6 5 47 15 90 20 89 39 270 31 311
-3 14 -21 40 -40 55 -39 32 -38 45 4 56 56 13 114 58 181 138 198 237 238 353
236 697 0 137 -5 222 -17 285 -16 87 -59 249 -76 290 -19 45 -102 308 -98 311
11 11 232 -244 358 -413 239 -317 407 -609 603 -1048 56 -124 198 -562 235
-720 29 -128 71 -355 71 -385 0 -14 5 -32 10 -40 6 -10 10 748 10 2148 l0
2162 -5120 0 -5120 0 0 -5120z m5640 5021 c36 -5 112 -15 170 -21 270 -29 694
-123 985 -218 282 -93 775 -302 775 -330 0 -4 -7 -18 -16 -31 -12 -17 -15 -36
-11 -73 11 -93 44 -102 109 -30 23 26 49 51 55 56 8 4 38 -6 72 -24 100 -54
125 -90 61 -90 -16 0 -31 -4 -34 -9 -3 -5 -18 -12 -33 -16 -36 -8 -81 -51 -98
-92 -8 -18 -19 -33 -26 -33 -7 0 -62 51 -123 113 -127 130 -245 222 -349 271
-147 70 -354 100 -516 77 -90 -13 -116 -22 -173 -59 l-38 -25 -102 26 c-167
41 -213 48 -528 83 -187 21 -521 14 -780 -15 -447 -52 -530 -63 -620 -87 -105
-27 -140 -46 -140 -73 0 -48 122 -52 380 -11 340 53 960 71 1180 35 47 -8 135
-21 195 -30 171 -24 211 -32 244 -49 16 -9 38 -16 48 -16 16 0 18 -10 19 -88
0 -78 4 -94 34 -157 19 -38 39 -74 45 -80 6 -5 22 -28 36 -50 14 -22 75 -113
135 -202 60 -89 118 -178 129 -197 11 -20 41 -68 66 -108 25 -40 65 -107 89
-148 25 -41 61 -100 81 -130 39 -59 93 -183 104 -240 3 -19 9 -44 12 -55 5
-18 -54 63 -71 96 -47 98 -175 253 -286 348 -77 67 -246 175 -340 218 -62 28
-222 83 -305 104 -68 18 -102 20 -230 17 -124 -4 -160 -8 -207 -27 -81 -32
-122 -62 -126 -93 -4 -33 22 -43 75 -29 21 6 111 11 200 11 155 0 165 -1 250
-31 174 -62 446 -200 541 -276 64 -51 134 -125 196 -208 107 -142 167 -294
217 -550 20 -103 17 -363 -4 -445 -20 -78 -136 -323 -189 -400 -36 -52 -145
-154 -240 -223 -70 -51 -276 -145 -398 -181 -235 -71 -457 -58 -741 44 -64 23
-127 40 -144 38 -44 -4 -44 -40 -1 -103 20 -27 51 -73 71 -102 19 -28 43 -54
52 -57 38 -11 191 -26 272 -26 47 0 121 -4 165 -10 45 -5 218 -15 386 -21 749
-27 937 -95 1035 -378 19 -55 20 -357 2 -411 -7 -20 -25 -41 -45 -53 -47 -27
-165 -33 -282 -13 -228 38 -529 57 -555 36 -27 -23 -16 -51 45 -112 33 -33 60
-64 60 -69 0 -5 -10 -9 -22 -9 -13 0 -72 -5 -132 -10 -131 -13 -181 -34 -281
-118 -84 -71 -113 -106 -162 -204 -36 -71 -38 -77 -41 -196 -5 -137 5 -175 74
-315 41 -81 140 -184 206 -215 150 -69 459 -68 663 3 56 20 152 90 190 138 38
50 72 137 91 228 36 178 -20 370 -143 493 -90 90 -152 127 -293 176 -89 30
-110 41 -110 57 0 16 49 17 135 3 408 -66 587 -50 703 63 33 32 47 57 62 108
11 36 20 78 20 92 0 58 48 36 69 -31 10 -31 53 -266 68 -369 6 -37 -27 -154
-62 -224 -13 -25 -42 -102 -65 -170 -23 -68 -61 -171 -85 -229 -24 -58 -62
-157 -85 -220 -23 -63 -63 -167 -89 -230 -58 -137 -66 -167 -50 -186 17 -20
62 -17 92 6 34 27 72 95 152 275 81 183 92 200 110 185 27 -22 27 -67 1 -162
-13 -51 -27 -113 -31 -138 -7 -48 13 -159 39 -222 9 -21 16 -46 16 -57 0 -13
-41 -60 -107 -124 -205 -198 -356 -317 -568 -447 -66 -40 -158 -97 -205 -125
-203 -125 -532 -283 -775 -373 -450 -168 -465 -173 -900 -293 -38 -10 -109
-26 -159 -34 -51 -8 -96 -21 -105 -30 -14 -14 -16 -58 -18 -338 -1 -342 -15
-488 -50 -551 -9 -16 -92 -56 -115 -56 -15 0 -8 128 12 245 11 64 20 142 20
173 0 97 -35 265 -79 382 -12 30 -21 56 -21 57 0 1 21 3 48 5 44 3 47 5 50 34
6 61 -57 104 -154 104 -34 0 -52 8 -100 46 -118 92 -186 129 -321 175 -93 32
-143 56 -262 128 -129 78 -225 103 -471 124 -25 2 -119 0 -209 -5 -171 -10
-205 -5 -215 31 -3 9 -10 35 -16 59 -6 23 -17 42 -24 42 -7 0 -32 -27 -55 -59
-22 -33 -45 -61 -49 -63 -4 -2 -33 -37 -64 -78 -87 -114 -107 -133 -193 -191
-144 -96 -342 -157 -465 -144 -129 14 -248 66 -292 128 -35 49 -31 136 12 216
27 50 49 74 113 122 43 33 93 67 110 76 111 57 255 208 296 309 7 18 26 45 42
60 30 28 33 29 137 28 104 -1 108 -1 167 -37 72 -43 153 -123 192 -192 46 -78
83 -72 102 17 16 73 1 117 -62 181 -60 62 -172 131 -241 148 -40 10 -56 9
-106 -6 -47 -14 -77 -17 -152 -11 -98 7 -111 5 -251 -48 -106 -40 -210 -59
-337 -59 -160 -1 -232 25 -375 137 -93 73 -106 76 -331 76 -111 0 -226 5 -255
10 -98 19 -338 148 -431 232 -41 38 -50 54 -77 140 -31 95 -39 153 -22 146 4
-1 32 -31 62 -65 62 -70 175 -166 228 -192 90 -45 147 -54 290 -48 85 3 153
11 181 21 51 18 214 32 254 22 15 -4 57 -43 107 -102 147 -172 201 -185 639
-157 63 3 162 7 220 7 l105 1 19 40 c60 125 10 267 -116 331 -48 24 -55 25
-163 18 l-113 -7 -4 194 c-2 107 -2 199 0 206 4 13 130 81 175 94 42 12 62 -3
131 -94 79 -105 77 -104 131 -72 26 14 49 33 52 41 9 23 -46 105 -116 173 -70
68 -146 111 -197 111 -36 0 -128 -45 -182 -90 -20 -16 -41 -30 -47 -30 -11 1
-106 187 -105 207 0 7 6 16 13 20 8 4 36 33 62 63 27 30 52 56 56 58 5 2 76
-24 158 -57 177 -72 234 -88 344 -96 99 -8 342 10 412 29 70 21 185 63 218 82
17 10 27 11 27 4 0 -6 -28 -61 -61 -122 -34 -61 -72 -135 -85 -164 -13 -30
-35 -72 -48 -93 -53 -84 -95 -180 -116 -266 -13 -49 -26 -94 -30 -98 -5 -5
-58 41 -118 103 -95 96 -115 111 -139 108 -34 -4 -49 -39 -39 -91 8 -40 78
-139 227 -317 53 -63 109 -135 126 -160 17 -25 66 -85 108 -135 86 -100 199
-238 289 -354 32 -42 77 -96 100 -121 23 -25 67 -77 98 -116 66 -83 98 -101
303 -167 77 -25 190 -63 251 -85 192 -69 350 -102 535 -109 158 -7 204 -1 220
29 29 55 -44 104 -179 119 -48 5 -109 13 -137 19 -27 5 -86 14 -130 20 -113
15 -162 27 -310 72 -259 79 -319 105 -387 166 -46 42 -228 251 -228 262 0 4
39 10 88 12 158 8 224 61 362 293 64 108 107 165 125 165 14 0 25 -43 25 -101
0 -115 67 -271 155 -362 64 -65 89 -79 225 -130 118 -44 179 -54 223 -36 72
29 264 167 301 216 24 32 14 40 -21 15 -93 -65 -258 -122 -354 -122 -59 0 -80
5 -137 34 -103 52 -144 87 -197 167 -83 125 -99 175 -100 309 0 110 1 118 32
175 47 89 131 185 191 218 104 56 255 71 363 36 183 -60 282 -160 340 -339 39
-122 38 -158 -7 -319 -5 -17 -4 -22 5 -17 19 12 54 75 91 161 45 109 46 174 3
267 -51 110 -172 251 -249 291 -131 68 -299 80 -458 33 -49 -15 -91 -24 -94
-22 -13 14 16 64 94 162 47 60 94 110 105 112 10 2 31 -6 47 -18 45 -36 91
-50 226 -71 161 -24 158 -24 154 3 -6 46 -63 69 -278 109 -71 13 -110 28 -110
43 0 6 51 63 113 126 221 226 359 319 639 431 126 51 172 64 268 79 41 6 97
16 123 21 26 5 89 9 140 9 180 0 486 44 516 75 13 13 13 19 -2 50 -28 60 -79
66 -312 41 -71 -8 -186 -17 -255 -21 -69 -3 -143 -10 -165 -15 -372 -84 -517
-146 -849 -369 -66 -44 -275 -261 -397 -413 -268 -333 -433 -564 -637 -898
-98 -159 -130 -203 -168 -230 -44 -29 -75 -23 -219 40 -60 26 -126 55 -145 63
-58 25 -69 39 -91 117 -11 42 -44 117 -75 172 -63 110 -88 179 -79 223 3 16
23 56 45 90 21 33 82 148 135 255 176 360 170 350 384 650 136 191 202 270
343 408 231 226 417 356 714 501 246 120 260 125 579 186 72 14 140 30 153 35
30 13 28 45 -4 75 -22 21 -37 25 -87 25 -57 0 -202 -24 -337 -56 -65 -15 -337
-131 -440 -187 -157 -85 -311 -178 -372 -225 -69 -53 -93 -52 -84 6 17 105 18
189 1 267 -10 44 -20 91 -23 105 -3 13 -18 48 -34 76 -15 29 -28 57 -28 63 0
6 75 61 167 122 119 80 171 109 181 103 7 -5 28 -36 46 -69 60 -113 198 -314
219 -321 29 -9 49 21 41 61 -7 35 -129 226 -191 299 -24 27 -43 58 -43 68 0
21 49 54 164 110 45 22 116 57 160 79 43 21 89 39 101 39 16 0 40 -19 77 -62
98 -114 193 -210 220 -224 15 -8 43 -14 62 -14 40 0 53 21 37 62 -9 25 -107
157 -196 266 -99 119 -223 392 -250 548 -26 151 -17 251 41 428 110 341 307
568 671 770 56 31 107 63 113 71 18 22 8 47 -30 73 -45 30 -82 25 -193 -28
-216 -102 -487 -354 -579 -537 -8 -15 -19 -37 -26 -48 -6 -11 -18 -36 -28 -55
-63 -131 -95 -190 -103 -190 -13 0 -31 33 -31 56 0 9 -42 103 -94 208 -51 105
-110 227 -131 271 -90 194 -267 539 -310 607 -56 87 -81 115 -119 135 -39 20
-53 5 -38 -39 15 -47 113 -281 150 -361 18 -37 32 -70 32 -74 0 -10 310 -623
350 -693 86 -149 139 -291 160 -435 10 -66 26 -153 36 -193 12 -52 14 -76 7
-83 -6 -6 -44 -22 -84 -36 -85 -28 -377 -177 -464 -236 -102 -68 -202 -146
-256 -198 -28 -27 -57 -49 -64 -49 -7 0 -32 30 -55 68 -56 87 -244 274 -343
341 -43 29 -117 73 -165 98 -108 56 -140 86 -204 193 -28 47 -105 164 -172
260 -66 96 -162 238 -213 315 -213 323 -254 375 -292 375 -27 0 -27 -24 -1
-85 22 -52 26 -95 9 -112 -7 -7 -4 -12 13 -16 15 -4 32 -23 46 -49 40 -79 117
-205 183 -300 11 -15 19 -31 19 -36 0 -12 55 -86 123 -166 32 -38 66 -80 75
-95 9 -14 40 -56 69 -93 29 -37 53 -69 53 -72 0 -4 -71 -3 -157 0 -169 7 -237
0 -398 -41 -157 -40 -221 -71 -411 -202 -231 -159 -423 -394 -382 -466 19 -35
58 -20 137 56 238 229 536 442 670 477 55 15 453 15 541 1 135 -22 318 -106
415 -191 138 -119 322 -350 389 -485 19 -38 47 -87 63 -107 45 -56 107 -299
119 -468 7 -102 -18 -284 -48 -345 -11 -22 -75 -96 -143 -165 -67 -69 -140
-152 -162 -185 -68 -105 -152 -213 -186 -238 -17 -14 -63 -37 -102 -52 -38
-15 -96 -40 -127 -56 -94 -47 -199 -85 -272 -99 -91 -17 -311 -7 -429 20 -320
72 -682 433 -849 849 -39 96 -58 259 -57 485 1 193 0 211 -18 223 -23 17 -73
13 -84 -7 -4 -8 -20 -46 -35 -85 -35 -92 -44 -268 -20 -424 14 -91 99 -377
117 -391 3 -3 27 -49 53 -102 25 -54 59 -112 74 -130 56 -64 92 -121 92 -145
0 -13 -16 -46 -35 -73 -19 -27 -35 -53 -35 -57 0 -5 -4 -14 -9 -22 -7 -10 -18
-4 -47 29 -22 23 -50 59 -64 79 -14 20 -30 41 -36 47 -6 7 -30 52 -54 100 -24
49 -52 100 -62 113 -9 12 -20 39 -24 60 -4 20 -11 39 -16 42 -11 7 -43 125
-65 239 -25 133 -30 270 -19 465 17 282 11 437 -23 603 -14 68 -120 175 -173
175 -52 0 -52 -21 -4 -148 16 -42 22 -125 9 -125 -5 0 -27 11 -50 24 -58 34
-148 66 -183 66 -41 0 -127 -43 -177 -88 -55 -49 -145 -172 -182 -248 -78
-163 -106 -353 -98 -669 3 -115 10 -233 17 -261 6 -29 10 -73 8 -99 l-3 -47
-37 64 c-56 98 -98 303 -98 483 0 138 25 349 48 415 61 171 178 381 270 482
57 64 138 103 253 122 79 14 74 72 -8 108 -98 43 -163 25 -292 -83 -33 -28
-65 -49 -70 -47 -27 9 192 521 308 721 28 49 51 90 51 92 0 7 128 212 190 305
261 390 629 787 1015 1096 206 165 504 365 716 482 68 37 397 202 404 202 2 0
28 11 57 24 67 30 310 125 408 159 405 140 958 247 1400 271 123 7 765 -3 830
-13z m1157 -595 c4 -4 -9 -22 -30 -39 -20 -18 -37 -36 -37 -41 0 -5 -9 -29
-21 -52 -19 -40 -19 -50 -9 -139 10 -97 21 -127 83 -222 15 -23 38 -50 52 -59
14 -9 25 -21 25 -27 0 -6 28 -40 63 -77 34 -36 74 -80 89 -98 28 -34 48 -41
48 -17 0 18 31 20 48 3 9 -9 17 -10 30 -2 9 6 28 8 42 4 19 -4 26 -15 33 -48
5 -27 14 -42 23 -42 18 0 47 -27 63 -58 l12 -23 -33 17 c-18 9 -35 20 -38 24
-3 4 -15 10 -27 14 -17 6 -22 4 -17 -7 8 -23 64 -59 81 -53 11 5 14 2 9 -9 -3
-9 -2 -13 3 -10 5 3 12 1 15 -4 6 -9 82 -5 98 5 4 3 3 14 -2 25 -10 17 -9 18
14 7 15 -6 30 -25 36 -44 7 -19 17 -34 23 -34 7 0 18 -9 25 -20 7 -11 21 -20
31 -20 11 0 29 -12 40 -27 11 -16 27 -35 35 -43 13 -14 13 -21 1 -55 l-13 -40
30 -8 c17 -5 28 -11 25 -14 -4 -3 0 -12 8 -19 7 -8 15 -19 17 -26 7 -19 28 1
28 28 0 26 17 33 26 9 4 -8 13 -15 22 -15 14 0 14 -1 0 -12 -8 -7 -18 -20 -21
-29 -4 -13 3 -18 37 -21 51 -6 108 1 101 12 -3 5 0 12 6 16 6 3 22 -5 36 -20
13 -15 28 -24 34 -21 22 14 7 -16 -16 -31 -14 -9 -28 -27 -31 -40 -3 -13 -10
-24 -15 -24 -13 0 -11 -28 3 -36 13 -8 40 24 31 38 -3 6 3 8 13 6 13 -2 18
-10 16 -26 -2 -12 -1 -22 1 -22 10 0 73 35 79 44 9 13 40 -13 34 -29 -2 -6 1
-12 7 -13 7 0 22 -4 35 -7 17 -6 22 -3 22 10 0 10 6 15 18 13 10 -2 17 -12 16
-24 0 -16 5 -20 18 -16 10 2 18 10 18 18 0 17 17 27 37 20 12 -5 13 -9 3 -21
-12 -14 -7 -19 13 -16 5 1 6 -3 2 -9 -3 -5 -13 -10 -21 -10 -9 0 -14 -11 -15
-32 0 -28 -2 -30 -9 -13 l-9 20 -1 -20 c-2 -17 -3 -16 -9 5 l-7 25 -13 -23
c-7 -13 -10 -30 -7 -37 3 -9 0 -12 -11 -8 -18 7 -34 -14 -25 -35 4 -12 7 -12
18 3 12 16 13 16 11 -4 -1 -11 -5 -21 -9 -21 -4 0 -8 -5 -8 -11 0 -7 10 -9 26
-5 22 6 25 4 19 -14 -7 -23 20 -39 37 -22 6 6 17 8 24 5 10 -4 12 0 8 11 -5
14 -24 21 -47 17 -5 -1 -6 3 -2 8 4 7 15 7 31 1 14 -6 40 -10 58 -10 33 0 56
-15 56 -37 0 -9 -15 -13 -48 -13 -53 0 -112 -24 -112 -45 0 -16 35 -26 48 -13
5 5 18 8 28 6 14 -2 8 -9 -24 -25 -24 -11 -52 -19 -62 -16 -29 8 -25 -6 5 -17
33 -12 78 -3 105 22 20 19 22 19 40 3 26 -24 50 -12 50 24 0 16 5 33 10 36 6
3 10 -3 10 -14 0 -11 8 -24 17 -30 14 -8 12 -11 -19 -24 -29 -12 -35 -20 -31
-36 4 -14 13 -21 29 -21 14 0 27 -7 31 -16 5 -13 14 -15 44 -10 43 7 51 -5 18
-27 -17 -13 -19 -19 -10 -36 7 -12 20 -21 30 -21 18 0 39 -45 27 -57 -8 -8
-38 6 -32 15 6 10 -10 37 -24 38 -5 1 -14 2 -20 3 -5 0 -10 12 -10 25 0 22
-40 76 -58 76 -4 0 -17 -7 -28 -15 -12 -9 -31 -12 -51 -9 -40 7 -56 -18 -29
-44 16 -16 18 -16 30 1 7 9 18 17 25 17 16 0 14 -28 -4 -37 -18 -10 -9 -53 11
-53 15 0 37 34 27 43 -3 3 -3 14 1 23 5 13 11 11 37 -17 23 -24 27 -34 17 -40
-7 -5 -16 -9 -21 -9 -4 0 -15 -17 -23 -37 -9 -21 -20 -46 -25 -55 -5 -10 -9
-23 -9 -30 0 -6 -8 -20 -17 -30 -20 -22 -5 -45 23 -34 12 5 15 14 11 34 -4 21
0 33 14 45 10 9 19 23 19 31 0 16 27 29 41 20 5 -3 9 -16 9 -28 0 -15 7 -26
20 -29 11 -3 20 -13 20 -22 0 -10 6 -15 17 -13 26 5 28 35 4 43 -22 7 -31 55
-11 55 9 0 15 -21 11 -42 0 -5 5 -8 13 -8 7 0 19 -7 26 -15 11 -13 10 -18 -6
-30 -18 -15 -18 -16 8 -38 25 -21 26 -25 17 -66 -11 -51 -6 -74 17 -69 17 3
44 68 44 105 0 37 21 72 39 66 52 -16 71 -27 71 -41 0 -13 -2 -13 -18 1 -16
14 -21 15 -37 3 -19 -14 -13 -36 11 -36 8 0 14 -10 14 -25 0 -14 -4 -25 -10
-25 -13 0 -13 -57 0 -65 15 -9 40 13 40 34 0 20 43 64 66 67 8 1 26 -16 40
-38 23 -35 24 -42 11 -56 -8 -10 -17 -25 -18 -36 -4 -18 -5 -17 -29 2 -24 20
-24 21 -6 35 12 9 15 16 8 21 -26 16 -53 -17 -56 -69 -1 -16 -8 -20 -33 -18
-37 3 -46 -7 -37 -42 4 -16 13 -25 25 -25 25 0 24 -22 -1 -38 -22 -14 -27 -48
-7 -55 8 -3 5 -11 -10 -25 -12 -12 -24 -30 -27 -40 -4 -10 -18 -24 -33 -31
-22 -10 -24 -14 -12 -22 7 -5 9 -9 4 -9 -6 0 -15 -16 -21 -35 -11 -34 -8 -40
17 -37 3 1 4 -11 1 -26 -5 -23 -7 -24 -10 -7 -5 21 -19 35 -39 35 -9 0 -9 -9
1 -37 7 -22 9 -49 5 -63 -4 -14 -5 -52 -2 -85 5 -56 3 -61 -18 -70 -28 -12
-41 -52 -15 -42 27 11 30 -19 7 -63 -12 -22 -21 -54 -21 -70 0 -17 -3 -30 -7
-30 -5 0 -14 -4 -22 -9 -12 -8 -12 -12 -2 -24 8 -10 9 -21 3 -34 -5 -10 -19
-39 -30 -64 -28 -62 -65 -104 -175 -192 -145 -117 -177 -127 -243 -78 -60 45
-144 129 -144 145 0 17 30 42 117 96 103 64 161 181 149 299 -7 68 -50 175
-82 203 -20 17 -83 35 -204 57 -103 19 -165 53 -241 132 -38 38 -80 89 -94
113 -33 56 -130 317 -144 387 -6 30 -29 149 -52 264 -64 331 -160 623 -280
855 -28 55 -141 225 -225 341 -86 117 -149 174 -242 216 -98 44 -118 64 -133
128 -14 65 3 210 32 267 29 56 87 117 123 128 36 11 161 8 173 -4z m420 -2118
c5 -7 18 -51 27 -98 10 -47 22 -104 27 -128 10 -45 3 -68 -26 -92 -9 -8 -25
-31 -36 -51 -16 -33 -19 -59 -18 -181 0 -217 17 -339 83 -610 56 -226 65 -288
43 -288 -8 0 -28 10 -44 23 -79 65 -223 137 -383 192 -122 42 -191 51 -427 54
-49 1 -83 5 -83 11 0 6 21 20 48 32 153 68 215 103 282 160 292 246 446 524
473 856 6 72 14 132 18 132 3 0 11 -6 16 -12z m171 -505 c148 -209 264 -297
442 -337 141 -32 150 -35 170 -69 25 -41 25 -68 -1 -120 -27 -52 -115 -183
-129 -192 -29 -18 -50 -86 -50 -162 0 -68 4 -85 29 -129 16 -28 46 -63 66 -78
38 -29 130 -66 165 -66 12 0 31 -5 42 -11 18 -10 20 -17 14 -80 -4 -41 -2 -85
4 -110 16 -59 7 -81 -45 -108 -64 -34 -173 -118 -282 -218 -57 -53 -98 -83
-107 -80 -8 3 -18 26 -21 54 -8 49 -15 80 -60 243 -15 52 -32 124 -40 160 -40
201 -80 384 -115 535 -48 204 -159 759 -160 796 0 26 7 39 22 39 5 0 30 -30
56 -67z m1624 -783 c45 -26 77 -68 107 -140 19 -44 24 -73 24 -150 0 -87 -3
-102 -35 -175 -41 -95 -111 -205 -164 -259 -47 -47 -161 -128 -226 -162 -78
-40 -88 -36 -160 64 -90 121 -90 121 -70 155 18 29 171 174 231 218 20 14 81
52 136 84 113 66 145 91 145 116 0 60 -124 58 -258 -6 -95 -45 -162 -97 -304
-239 -64 -64 -120 -116 -125 -116 -34 0 -44 93 -22 201 13 66 19 74 94 129 33
24 103 84 155 133 136 128 176 153 280 171 56 10 157 -3 192 -24z m-648 -811
c19 -16 69 -87 112 -157 124 -206 153 -248 177 -259 15 -7 61 -3 155 13 146
24 150 26 437 179 77 41 149 75 160 75 23 0 95 -86 95 -113 0 -10 -18 -25 -42
-36 -47 -21 -99 -44 -198 -87 -36 -16 -141 -67 -235 -114 -93 -47 -203 -96
-242 -110 -66 -22 -78 -23 -129 -12 -31 6 -71 22 -88 36 -35 26 -128 175 -171
271 -96 216 -113 241 -160 229 -67 -17 -271 -268 -341 -420 -40 -86 -78 -118
-167 -136 -69 -15 -83 -6 -73 45 8 41 117 225 195 330 119 159 317 297 428
297 44 0 58 -5 87 -31z m-1729 -344 c163 -71 286 -214 329 -382 28 -109 15
-189 -48 -298 -55 -94 -228 -209 -356 -236 -67 -14 -215 -6 -285 15 -61 19
-158 91 -202 149 -39 51 -90 168 -103 237 -11 59 0 134 35 233 40 112 109 191
230 263 73 43 78 43 225 40 102 -2 145 -7 175 -21z m-5327 -345 c7 -11 19 -20
27 -20 8 0 15 -9 15 -20 0 -18 3 -19 22 -9 l23 12 -23 10 c-29 13 -28 35 2 43
20 5 33 -2 62 -31 29 -29 34 -39 23 -46 -8 -5 -20 -9 -26 -9 -21 0 -15 -21 23
-78 1 -2 11 -1 22 2 19 6 24 28 9 42 -12 12 -8 24 7 24 8 0 24 -12 35 -27 23
-28 20 -61 -6 -76 -7 -5 -11 -12 -8 -17 3 -5 -4 -14 -15 -20 -28 -15 -24 -65
5 -65 16 0 21 8 23 38 2 26 7 37 16 34 7 -3 13 4 13 15 3 30 11 34 30 15 15
-15 15 -17 0 -23 -9 -3 -17 -17 -17 -30 0 -27 -19 -73 -39 -94 -12 -12 -16
-11 -35 13 -12 15 -26 27 -31 27 -4 0 -17 8 -27 17 -12 11 -22 13 -28 7 -14
-14 50 -84 77 -84 25 0 41 -19 24 -29 -6 -4 -9 -14 -6 -23 3 -8 -1 -21 -10
-28 -17 -14 -20 -46 -5 -55 16 -10 12 -35 -6 -35 -9 0 -22 17 -31 39 -10 27
-20 38 -30 34 -8 -3 -23 4 -34 16 -11 11 -24 21 -29 21 -5 0 -12 11 -16 25 -3
14 -10 25 -15 25 -5 0 -15 13 -23 29 -13 25 -13 31 0 50 11 15 22 19 40 15 28
-7 45 20 25 39 -10 9 -15 8 -25 -5 -18 -24 -23 -23 -41 11 -18 35 -3 52 24 27
15 -14 20 -14 54 1 21 10 37 24 37 34 0 21 -37 32 -44 13 -8 -21 -22 -17 -23
6 -1 11 4 20 13 20 8 0 14 7 14 16 0 10 -5 14 -16 10 -8 -3 -12 -2 -9 4 3 6 0
10 -8 10 -10 0 -14 -7 -10 -22 4 -19 3 -20 -6 -8 -8 12 -11 12 -11 1 0 -10 -4
-11 -12 -3 -13 10 -18 12 -39 12 -6 0 -9 9 -6 20 4 17 2 18 -14 9 -11 -5 -17
-14 -14 -20 9 -14 -4 -29 -20 -23 -12 5 -12 9 1 29 14 22 14 24 -5 30 -35 11
-25 35 13 35 25 0 35 5 39 20 3 11 11 20 19 20 7 0 19 -9 26 -20z m7139 -55
c320 -29 508 -99 744 -276 106 -80 249 -234 249 -268 0 -14 -23 -63 -50 -107
-85 -139 -260 -275 -425 -332 -60 -20 -98 -25 -261 -31 -105 -5 -196 -11 -201
-14 -8 -5 -48 3 -183 38 -91 24 -210 69 -224 84 -9 10 -27 38 -39 62 -17 34
-42 57 -112 104 -107 71 -203 184 -264 310 -41 84 -85 273 -79 337 3 32 5 33
88 55 47 13 114 30 150 37 90 19 402 19 607 1z m-6783 -292 c-4 -27 -7 -54 -7
-60 0 -7 -4 -13 -8 -13 -5 0 -6 -7 -3 -15 8 -20 42 -2 54 28 8 21 9 21 9 -5 1
-15 -3 -30 -9 -33 -16 -10 -13 -85 4 -85 19 0 30 -103 14 -130 -7 -11 -19 -20
-26 -20 -10 0 -13 -12 -10 -45 3 -42 -7 -57 -26 -38 -12 13 -35 11 -40 -3 -3
-8 0 -14 7 -14 23 0 37 -22 26 -42 -14 -26 -29 -22 -29 7 0 36 -29 32 -63 -7
-16 -20 -24 -25 -20 -14 4 13 3 17 -4 13 -15 -10 -43 2 -43 18 0 18 30 27 47
14 19 -17 27 -5 18 28 -4 15 -10 22 -12 16 -7 -20 -33 -15 -33 6 0 11 -4 23
-10 26 -17 11 -11 24 15 31 35 9 35 51 0 60 -21 5 -24 11 -19 28 4 11 9 23 13
26 3 3 6 16 6 30 0 22 5 25 35 26 54 1 64 3 56 11 -4 4 -13 8 -19 9 -24 2 -57
17 -57 24 0 9 28 40 36 40 3 0 3 -4 0 -9 -7 -11 18 -33 27 -24 4 3 7 21 7 40
0 23 -5 33 -15 33 -9 0 -15 9 -15 24 0 13 -3 31 -6 40 -4 11 -1 16 10 16 14 0
38 -37 40 -64 2 -16 23 -18 23 -2 0 16 23 76 30 76 2 0 1 -21 -3 -47z m-350
-50 c20 -21 39 -46 42 -55 3 -11 15 -18 29 -18 15 0 26 -7 30 -20 3 -11 15
-25 26 -31 25 -13 22 -52 -3 -57 -10 -2 -18 1 -18 6 0 19 -54 92 -67 92 -24 0
-28 -31 -6 -49 12 -9 24 -27 28 -41 5 -14 15 -30 24 -37 15 -11 14 -12 -1 -13
-10 0 -18 5 -18 10 0 6 -7 10 -16 10 -8 0 -20 14 -25 30 -7 19 -18 30 -30 30
-23 0 -24 13 -4 34 11 11 13 21 5 40 -5 14 -14 26 -19 26 -11 0 -41 51 -41 70
0 21 30 9 64 -27z m6365 -371 c125 -129 269 -206 496 -266 50 -13 122 -34 160
-46 39 -12 91 -25 118 -29 26 -4 60 -17 75 -29 111 -90 98 -85 200 -78 50 3
92 2 92 -3 0 -15 -152 -88 -220 -106 -48 -12 -110 -17 -242 -17 -192 0 -206
-5 -173 -54 19 -29 48 -44 147 -74 l77 -24 -87 -91 c-102 -105 -180 -202 -211
-262 -12 -24 -35 -64 -51 -90 -17 -26 -30 -55 -30 -64 0 -27 -16 -31 -27 -6
-75 159 -236 650 -246 750 -4 44 -2 50 19 59 41 19 38 41 -24 155 -124 229
-179 353 -155 353 3 0 40 -35 82 -78z m-5889 -167 c0 -10 10 -15 30 -15 17 0
30 -5 30 -11 0 -15 26 -39 43 -39 8 0 20 7 27 15 7 8 16 12 21 9 16 -10 9 -33
-12 -39 -12 -4 -18 -12 -15 -21 4 -10 -2 -14 -20 -14 -13 0 -27 7 -30 15 -9
21 -31 19 -44 -5 -16 -30 -114 -26 -105 3 2 7 6 24 9 38 3 15 13 29 21 33 11
4 14 2 9 -7 -5 -7 -1 -6 10 2 10 8 15 23 13 33 -3 10 -1 18 4 18 5 0 9 -7 9
-15z m365 -82 c4 -14 2 -23 -4 -23 -23 0 -10 -19 20 -29 26 -9 29 -13 19 -25
-6 -9 -9 -19 -6 -24 3 -5 -15 -9 -39 -9 -37 0 -45 4 -45 19 0 13 -7 18 -27 17
-24 -2 -25 -2 -5 -6 12 -2 22 -8 22 -12 0 -12 -113 -30 -130 -20 -17 9 -2 12
55 11 20 -1 25 2 16 8 -19 11 -161 10 -161 -1 0 -5 11 -9 25 -9 14 0 25 -4 25
-10 0 -13 -14 -13 -62 2 -31 9 -38 16 -36 32 3 20 8 21 83 18 65 -3 78 -2 68
9 -20 20 -16 57 7 64 20 6 50 -14 50 -34 0 -6 7 -11 16 -11 14 0 14 1 0 16
-22 21 -20 30 7 39 73 26 88 22 102 -22z m5485 -131 c0 -10 -23 -161 -47 -312
-23 -142 -23 -410 0 -544 31 -176 86 -311 197 -486 70 -109 92 -155 88 -178
-6 -29 -82 52 -162 171 -121 182 -175 309 -258 602 -38 137 -42 162 -46 293
-3 123 -1 151 17 211 22 73 83 164 147 220 33 30 64 40 64 23z m-7145 -84
c247 -97 315 -104 575 -61 l94 16 16 -24 c35 -53 112 -119 171 -147 145 -68
183 -77 324 -76 144 0 196 10 333 62 97 37 125 35 97 -5 -27 -38 -137 -115
-250 -175 -60 -32 -125 -66 -143 -76 -57 -30 -99 -70 -146 -140 -56 -85 -70
-139 -64 -247 12 -181 109 -288 309 -340 142 -38 399 1 575 85 89 43 188 113
230 163 51 61 154 167 163 167 5 0 9 -99 10 -227 0 -125 3 -257 7 -294 4 -45
3 -69 -5 -73 -6 -4 -149 -9 -317 -11 -238 -3 -309 -6 -319 -17 -6 -7 -17 -37
-24 -66 -7 -28 -22 -70 -32 -92 -40 -82 -46 -269 -13 -400 16 -64 18 -100 4
-100 -15 0 -231 163 -365 274 -147 124 -462 435 -576 571 -309 365 -554 749
-728 1137 -34 75 -61 139 -61 143 0 4 8 4 18 0 9 -4 62 -25 117 -47z m6746
-285 c3 -51 18 -212 30 -311 l13 -113 -27 -52 c-14 -29 -38 -79 -52 -112 -35
-80 -84 -151 -114 -165 -19 -9 -27 -7 -42 6 -11 9 -19 25 -19 34 0 9 -4 20 -9
26 -32 35 -52 242 -31 314 6 19 15 60 20 89 13 74 68 162 149 238 36 35 69 63
74 63 4 0 7 -8 8 -17z m-386 -275 c-38 -177 -32 -325 20 -443 52 -116 105
-161 202 -171 l60 -6 81 72 c45 39 82 75 82 78 0 4 14 22 30 41 17 18 30 38
30 42 0 5 4 9 9 9 9 0 40 -67 87 -185 70 -177 341 -546 445 -605 63 -36 236
-155 256 -176 12 -13 31 -24 42 -24 22 0 41 -27 41 -58 0 -21 -43 -59 -150
-132 -36 -24 -66 -48 -68 -52 -2 -4 -12 -8 -23 -8 -10 0 -19 -6 -19 -13 0 -8
-10 -23 -22 -35 -25 -22 -137 -92 -149 -92 -5 0 -11 27 -15 60 -8 69 -19 81
-92 99 -45 11 -57 11 -85 -3 -18 -8 -40 -23 -49 -33 -21 -23 -34 -73 -19 -73
6 0 11 5 11 10 0 6 7 10 15 10 8 0 15 4 15 9 0 17 54 36 93 33 26 -2 37 -8 37
-19 0 -9 7 -24 16 -34 40 -45 -28 -83 -108 -62 -21 6 -41 6 -44 2 -11 -18 -25
-8 -19 12 5 16 3 20 -6 17 -19 -7 -12 -55 13 -96 11 -18 17 -39 14 -48 -9 -23
-164 -94 -206 -94 -19 0 -44 -6 -55 -13 -11 -8 -29 -16 -40 -19 -11 -3 -28 -9
-37 -13 -13 -5 -18 -2 -18 11 0 15 -2 16 -9 5 -7 -11 -11 -4 -17 24 -12 64 20
92 45 40 14 -29 14 -29 22 -6 5 12 13 20 18 16 22 -13 20 17 -2 39 -15 15 -21
30 -17 42 3 11 5 26 5 34 -1 8 -3 22 -3 31 -2 20 -39 32 -49 16 -4 -6 -8 -27
-10 -47 -2 -19 -8 -39 -14 -44 -5 -6 -9 -20 -9 -32 0 -12 -7 -27 -15 -34 -8
-7 -18 -30 -21 -52 -4 -21 -11 -41 -15 -44 -5 -3 -9 -13 -9 -22 0 -15 -13 -17
-110 -15 -62 1 -110 -3 -110 -8 0 -5 11 -9 24 -9 13 0 35 -10 50 -21 l27 -21
-27 -14 c-14 -8 -35 -14 -45 -14 -10 0 -35 -9 -55 -20 -20 -12 -59 -27 -87
-34 -29 -8 -95 -28 -147 -46 -52 -18 -113 -33 -136 -34 -22 0 -47 -6 -55 -12
-27 -22 -85 -36 -183 -44 -98 -9 -98 -9 -134 18 -19 15 -43 26 -53 24 -18 -3
-95 33 -117 55 -15 15 -60 17 -81 4 -12 -8 -10 -12 10 -19 13 -6 47 -20 76
-31 28 -12 58 -21 65 -21 8 0 31 -9 53 -20 22 -11 47 -20 57 -20 10 0 18 -4
18 -10 0 -22 -51 -41 -127 -47 -75 -5 -89 -3 -189 30 -200 66 -469 111 -609
103 -279 -15 -448 -60 -635 -167 -27 -15 -46 -19 -83 -15 -26 3 -52 8 -57 11
-15 9 -12 42 9 83 24 47 88 209 96 243 7 29 -13 53 -42 47 -32 -6 -162 -169
-204 -255 -38 -79 -41 -83 -73 -83 -44 0 -262 43 -426 85 -192 49 -195 50
-195 64 0 6 38 29 85 51 68 31 104 41 184 50 141 15 148 19 390 225 54 46 276
179 284 170 3 -3 -11 -39 -31 -81 -20 -41 -37 -83 -37 -93 0 -51 108 -78 185
-47 88 36 158 96 244 208 47 60 98 120 115 132 22 17 61 28 134 40 57 9 114
21 128 26 14 6 46 10 72 11 26 0 42 3 37 5 -6 2 -9 20 -7 39 2 19 1 35 -2 35
-18 0 -167 -45 -204 -61 -23 -11 -56 -22 -72 -26 -45 -8 -40 14 34 165 39 78
72 162 83 208 10 42 24 79 31 82 8 2 23 -5 34 -16 20 -19 20 -24 8 -69 -7 -26
-19 -58 -27 -71 -17 -28 -9 -46 17 -32 21 11 40 60 40 105 0 55 17 60 128 42
l97 -16 46 31 c91 62 121 144 101 273 -16 98 -43 174 -85 238 -20 31 -37 60
-37 65 0 6 44 25 98 43 53 17 102 35 107 39 6 3 46 20 90 37 279 107 340 132
423 175 52 27 126 68 165 91 40 24 80 46 89 50 9 3 36 18 60 34 63 41 191 111
206 112 8 1 11 -7 7 -21z m-3828 -266 c8 -5 14 -99 19 -330 l7 -323 -53 -50
c-90 -84 -118 -96 -250 -104 -216 -12 -332 -24 -346 -36 -20 -16 -18 -195 2
-295 10 -47 40 -131 75 -208 56 -121 72 -186 49 -186 -17 0 -183 103 -206 127
-42 45 -100 241 -108 368 -6 84 6 272 19 307 5 13 48 17 298 24 l291 9 18 48
c10 27 31 65 47 85 50 64 54 92 46 332 -4 120 -4 223 -1 229 8 12 75 15 93 3z
m2443 -362 c11 -6 38 -41 60 -79 85 -142 83 -321 -2 -321 -76 0 -229 84 -241
132 -8 32 -37 228 -37 249 0 10 8 20 18 22 34 9 184 7 202 -3z m-1470 -60 c53
-28 158 -288 175 -431 11 -91 -31 -275 -106 -461 -26 -64 -42 -121 -46 -165
-6 -72 -18 -94 -87 -165 -42 -43 -47 -63 -13 -52 65 20 105 54 113 95 9 43 19
55 60 75 19 9 34 22 34 29 0 7 16 25 35 41 40 31 112 171 138 264 23 80 39
212 39 315 l0 90 20 -55 c19 -49 21 -80 22 -275 1 -171 5 -225 16 -242 11 -18
12 -24 1 -37 -8 -9 -17 -16 -22 -16 -14 0 -151 -141 -196 -201 -23 -31 -55
-68 -73 -82 -41 -35 -185 -105 -232 -113 -34 -5 -39 -3 -50 21 -9 21 -9 31 0
46 20 32 -10 23 -105 -31 -121 -69 -290 -130 -363 -130 -35 0 -203 63 -350
132 -52 24 -129 60 -170 78 -118 54 -140 69 -140 95 0 52 72 298 113 386 53
113 199 311 307 416 113 110 256 203 455 297 129 60 373 104 425 76z"/>
<path d="M5465 9490 c-11 -4 -47 -13 -80 -20 -33 -6 -80 -15 -105 -20 -25 -5
-85 -14 -135 -20 -49 -6 -110 -15 -135 -20 -25 -6 -92 -19 -150 -31 -194 -38
-540 -135 -563 -159 -9 -8 49 2 118 21 22 6 76 19 120 29 44 10 98 25 120 34
63 24 200 56 241 56 21 0 51 4 68 9 39 12 214 40 284 46 30 2 84 13 120 24 37
11 88 25 115 32 26 6 47 16 47 20 0 11 -38 11 -65 -1z"/>
<path d="M3523 9395 c-50 -13 -140 -47 -200 -75 -59 -28 -155 -72 -213 -97
-163 -71 -477 -239 -675 -360 -281 -173 -501 -334 -750 -547 -131 -112 -443
-457 -547 -604 -140 -199 -227 -338 -278 -446 -98 -204 -110 -266 -53 -266 54
0 124 75 188 200 22 44 187 308 234 375 54 79 219 284 280 350 199 216 389
390 556 510 46 33 127 92 181 132 55 39 131 90 169 112 39 23 113 69 165 103
52 33 131 81 175 106 103 58 576 285 635 305 115 39 289 112 325 136 32 21 40
33 40 56 l0 30 -70 2 c-47 1 -100 -6 -162 -22z"/>
<path d="M2863 8783 c-7 -3 -13 -16 -13 -29 0 -44 103 -269 197 -429 13 -22
44 -80 69 -130 42 -81 115 -219 224 -420 202 -374 302 -539 433 -717 19 -26
64 -58 82 -58 9 0 6 39 -5 58 -5 9 -31 64 -58 122 -27 58 -82 166 -124 240
-41 74 -92 167 -113 205 -21 39 -64 117 -95 175 -31 58 -85 159 -120 225 -192
367 -293 541 -393 682 -53 75 -63 83 -84 76z"/>
<path d="M5720 8414 c-115 -18 -297 -87 -382 -145 -113 -77 -208 -189 -208
-244 0 -77 65 -67 193 30 111 85 258 172 321 190 80 24 237 19 363 -10 147
-35 305 -117 388 -201 63 -64 143 -196 177 -294 52 -149 64 -357 28 -494 -25
-95 -96 -242 -153 -316 -84 -108 -256 -215 -401 -248 -52 -12 -123 -16 -261
-16 -216 0 -216 0 -375 87 -138 76 -242 181 -303 308 -25 52 -50 114 -56 139
-30 139 -36 185 -35 280 1 93 5 115 34 195 40 107 46 193 17 222 -20 20 -14
26 -101 -83 -45 -57 -98 -166 -115 -240 -26 -107 25 -426 89 -556 44 -89 119
-195 174 -245 153 -138 268 -202 431 -243 187 -47 265 -48 459 -4 288 66 428
140 562 299 95 114 121 158 154 265 49 156 60 223 60 383 0 124 -4 164 -24
247 -67 268 -248 477 -521 598 -111 49 -164 67 -257 87 -66 14 -195 18 -258 9z"/>
<path d="M1462 7448 c-80 -98 -138 -176 -203 -273 -34 -49 -69 -99 -78 -110
-24 -27 -74 -115 -83 -143 -14 -48 31 9 97 123 26 44 79 120 95 135 15 14 142
182 174 230 20 30 43 65 52 78 9 12 12 22 7 22 -6 0 -33 -28 -61 -62z"/>
<path d="M2355 6829 c-243 -34 -512 -216 -612 -414 -125 -247 -135 -423 -41
-718 58 -184 101 -256 224 -383 195 -199 403 -274 727 -261 212 9 331 42 473
132 76 48 116 85 171 163 33 46 46 74 47 100 1 36 0 37 -36 40 -51 4 -94 -17
-168 -85 -76 -69 -139 -110 -233 -153 -111 -50 -184 -63 -332 -57 -116 4 -140
8 -220 37 -125 46 -248 121 -319 194 -46 48 -72 89 -122 193 -142 291 -155
430 -64 645 33 76 112 182 190 251 59 52 187 130 270 164 62 25 64 25 184 13
261 -25 420 -83 561 -206 81 -70 138 -146 202 -264 60 -112 77 -190 69 -330
-3 -63 -11 -132 -17 -153 -13 -49 -4 -94 23 -103 11 -3 37 2 59 12 106 47 136
297 63 512 -140 411 -406 619 -854 667 -148 16 -158 16 -245 4z"/>
<path d="M5780 4964 c-64 -59 -179 -215 -205 -278 -23 -53 -20 -66 15 -66 45
0 112 67 216 218 95 137 108 175 63 180 -21 2 -41 -10 -89 -54z"/>
<path d="M5492 4065 c-89 -31 -116 -47 -142 -90 -43 -69 -20 -109 80 -146 34
-12 64 -28 67 -36 10 -26 -21 -75 -71 -112 -74 -55 -106 -65 -180 -57 -53 5
-65 4 -70 -10 -18 -48 48 -72 174 -61 45 4 73 2 83 -6 9 -7 27 -40 41 -75 32
-80 68 -129 134 -181 29 -23 52 -47 52 -54 0 -7 -17 -21 -37 -32 -118 -61
-350 -189 -372 -204 -14 -10 -73 -42 -131 -71 -200 -99 -379 -238 -383 -295
-2 -28 1 -30 35 -33 53 -4 123 30 468 230 91 52 183 105 205 117 22 11 67 37
100 56 102 59 375 190 490 235 61 23 153 60 205 82 52 22 151 58 220 80 69 21
193 61 275 88 83 28 211 65 285 84 130 34 160 49 160 83 0 22 -46 44 -103 50
-57 6 -156 -7 -247 -33 -122 -35 -259 -77 -325 -101 -38 -13 -144 -51 -235
-83 -91 -32 -186 -66 -211 -76 -25 -9 -52 -15 -60 -12 -10 4 -19 38 -27 103
-14 104 -35 161 -82 230 -16 24 -30 46 -30 49 0 3 17 14 38 25 54 27 132 103
132 128 0 22 -24 53 -40 53 -5 0 -28 -16 -52 -35 -99 -79 -109 -84 -202 -94
-101 -10 -129 -6 -122 18 16 50 26 112 26 159 l0 52 -37 0 c-21 0 -71 -12
-111 -25z m281 -302 c26 -16 97 -250 97 -320 0 -58 -18 -111 -43 -128 -18 -11
-31 -12 -61 -4 -55 15 -183 145 -224 227 -34 69 -34 67 17 155 47 81 62 90
141 82 36 -4 69 -9 73 -12z"/>
<path d="M4330 3995 c-25 -8 -75 -38 -113 -66 -57 -43 -72 -61 -102 -123 -39
-81 -42 -109 -20 -212 19 -92 38 -135 87 -201 86 -114 189 -154 317 -125 91
20 155 54 223 119 69 67 108 139 108 202 -1 149 -112 332 -238 392 -61 28
-196 36 -262 14z"/>
<path d="M6395 3213 c-43 -10 -127 -57 -146 -81 -24 -31 -21 -49 24 -128 42
-75 63 -79 138 -28 106 72 117 94 82 171 -31 69 -45 79 -98 66z"/>
<path d="M5975 3018 c-89 -45 -102 -82 -69 -184 19 -57 40 -84 64 -84 30 0
160 71 176 95 15 22 14 28 -8 72 -26 54 -88 123 -109 123 -8 -1 -32 -10 -54
-22z"/>
<path d="M2480 2933 c-200 -38 -328 -91 -431 -177 -79 -65 -104 -98 -120 -158
-31 -116 42 -104 216 37 22 18 63 44 90 58 71 35 284 105 357 116 74 12 85 21
72 58 -15 45 -112 80 -184 66z"/>
<path d="M5505 2861 c-61 -10 -68 -18 -63 -65 5 -42 52 -170 71 -194 8 -10 23
-12 50 -8 47 8 136 52 143 71 7 18 -43 171 -63 190 -15 16 -66 18 -138 6z"/>
<path d="M8345 6597 c-4 -20 -2 -51 5 -72 13 -40 7 -171 -12 -263 -6 -28 -8
-55 -4 -59 3 -4 31 1 60 11 55 19 75 43 52 66 -8 8 -6 15 8 26 11 8 15 14 8
14 -7 0 -9 10 -5 30 4 22 2 30 -8 30 -11 0 -11 2 1 10 12 7 12 12 2 22 -9 9
-12 9 -12 0 0 -7 -6 -11 -12 -9 -8 1 -14 -10 -16 -28 -8 -85 -31 -63 -28 28 1
44 6 61 19 68 23 13 22 26 -8 61 -14 16 -25 39 -25 51 0 12 -4 28 -9 36 -7 11
-11 5 -16 -22z"/>
<path d="M6295 4886 c-99 -51 -147 -96 -188 -176 -62 -123 -61 -226 6 -353 71
-136 246 -228 390 -206 77 13 192 75 263 143 71 70 94 125 94 231 0 152 -88
281 -250 366 -15 8 -73 14 -145 17 -113 3 -123 2 -170 -22z"/>
<path d="M8135 4239 c-49 -26 -111 -84 -132 -123 -32 -62 17 -146 122 -206 74
-42 134 -49 175 -20 43 31 63 81 62 161 -1 163 -107 251 -227 188z"/>
<path d="M8655 4121 c-34 -15 -73 -43 -88 -60 -23 -28 -27 -42 -27 -96 0 -54
4 -68 26 -94 26 -31 26 -31 127 -31 133 0 175 19 206 91 19 44 21 55 10 87
-21 68 -102 132 -166 132 -15 0 -55 -13 -88 -29z"/>
<path d="M4802 828 c-35 -44 -162 -243 -162 -256 0 -14 28 3 103 65 16 13 34
23 40 23 12 1 57 34 57 43 0 3 -8 4 -17 3 -10 0 -17 5 -15 12 1 8 -2 11 -7 8
-5 -3 -14 1 -21 9 -9 11 -7 20 14 42 14 15 26 36 26 45 0 21 -4 22 -18 6z"/>
<path d="M3655 1662 c-49 -30 -103 -98 -111 -137 -7 -39 8 -104 33 -143 38
-61 179 -83 239 -37 62 48 86 190 42 255 -26 39 -99 79 -143 80 -16 0 -43 -8
-60 -18z"/>
<path d="M3305 1215 c-22 -8 -41 -15 -42 -15 -2 0 -16 -19 -33 -42 -40 -55
-41 -120 -3 -189 44 -81 108 -106 206 -78 44 12 62 36 88 121 37 122 18 169
-78 202 -57 19 -86 20 -138 1z"/>
</g>
</svg>
